<?xml version="1.0" encoding="iso-8859-1"?>
<!-- Generator: Adobe Illustrator 19.0.0, SVG Export Plug-In . SVG Version: 6.00 Build 0)  -->
<svg version="1.1" id="Layer_1" xmlns="http://www.w3.org/2000/svg" xmlns:xlink="http://www.w3.org/1999/xlink" x="0px" y="0px"
	 viewBox="0 0 391.24 391.24" style="enable-background:new 0 0 391.24 391.24;" xml:space="preserve">
<path style="fill:#FFC10D;" d="M131.749,221.931L21.204,243.588v-15.709l105.697-76.412
	C127.354,173.705,129.034,196.978,131.749,221.931z"/>
<path style="fill:#56ACE0;" d="M205.964,352.517c-6.529,14.093-10.861,15.709-11.378,16.291c-0.517,0-4.848-2.198-11.378-16.291
	c-2.198-3.814-7.564-8.145-15.192-4.331l-31.418,5.947l30.901-22.238c3.814-2.715,5.43-7.564,4.331-11.96
	c-7.564-27.669-14.093-62.901-17.907-99.749h18.941c5.947,0,10.861-4.848,10.861-10.861c0-5.947-4.848-10.861-10.861-10.861h-21.139
	c-0.517-6.529-1.099-12.994-1.616-19.523h42.796c5.947,0,10.861-4.848,10.861-10.861c0-5.947-4.848-10.861-10.861-10.861h-44.412
	c-0.517-8.145-0.517-16.291-0.517-24.372c0-82.941,24.954-112.162,46.093-112.162s46.093,29.285,46.093,112.162
	c0.517,62.901-8.663,137.632-22.238,186.958c-1.099,4.848,0.517,9.762,4.331,11.96l30.319,22.238l-30.901-5.947
	C220.574,347.669,212.493,342.756,205.964,352.517z"/>
<path style="fill:#FFC10D;" d="M368.032,243.588v-15.709l-105.697-76.412c-0.517,22.238-2.198,46.093-4.849,70.465L368.032,243.588z
	"/>
<g>
	<path style="fill:#194F82;" d="M162.069,89.147c0,5.947,4.848,10.861,10.861,10.861s10.861-4.848,10.861-10.861
		c0-7.564,4.848-14.093,10.861-14.093c5.947,0,10.861,6.529,10.861,14.093c0,5.947,4.848,10.861,10.861,10.861
		c5.947,0,10.861-4.848,10.861-10.861c0-19.523-14.61-35.749-32.517-35.749C176.679,53.398,162.069,69.624,162.069,89.147z"/>
	<path style="fill:#194F82;" d="M194.586,274.489c-5.947,0-10.861,4.848-10.861,10.861v42.279c0,5.948,4.848,10.861,10.861,10.861
		c5.947,0,10.861-4.849,10.861-10.861v-42.279C205.446,279.337,200.533,274.489,194.586,274.489z"/>
	<path style="fill:#194F82;" d="M385.358,213.269l-27.669-20.04v-24.372c0-5.947-4.848-10.861-10.861-10.861
		s-10.861,4.848-10.861,10.861v8.663l-24.954-17.907v-23.855c0-5.947-4.849-10.861-10.861-10.861
		c-5.947,0-10.861,4.848-10.861,10.861v8.145l-26.958-19.006C259.62,6.723,205.446,0.259,194.586,0.259
		s-65.034,5.947-67.749,124.638l-25.988,19.006v-8.145c0-5.947-4.848-10.861-10.861-10.861c-5.947,0-10.861,4.848-10.861,10.861
		v23.273l-24.954,17.907v-8.145c0-5.947-4.848-10.861-10.861-10.861s-10.861,4.848-10.861,10.861v23.855L4.267,213.269
		C1.616,215.402,0,218.634,0,221.931v34.715c0,6.529,5.43,11.895,12.994,10.861l121.923-23.855
		c3.814,27.087,8.663,53.657,14.093,75.313l-37.366,27.087c-2.715,2.198-4.331,5.43-4.331,8.663v14.61
		c0,8.145,7.564,11.895,12.994,10.861l48.226-9.244c5.43,8.663,14.093,20.04,27.087,20.04s21.657-11.378,27.087-20.04l48.226,9.244
		c6.529,1.099,12.477-3.232,12.994-10.861v-14.61c0-3.232-1.616-6.529-4.331-8.663l-37.366-27.087
		c5.947-22.238,10.861-48.226,14.093-75.313l121.923,23.855c7.046,1.616,12.994-4.331,12.994-10.861v-34.715
		C389.689,218.634,388.073,215.402,385.358,213.269z M21.139,243.588v-15.709l105.697-76.412
		c0.517,22.238,2.198,45.511,4.848,70.465L21.139,243.588z M217.859,320C217.859,320.582,217.859,320.582,217.859,320
		c-1.099,4.848,0.517,9.762,4.331,11.895l30.319,22.238l-30.901-5.947c-1.099-0.517-9.244-5.43-15.709,4.331
		c-6.529,14.093-10.861,15.709-11.378,16.291c-0.517,0-4.848-2.198-11.378-16.291c-2.198-3.814-7.564-8.145-15.192-4.331
		l-31.418,5.947l30.901-22.238c3.814-2.715,5.43-7.564,4.331-11.895c-7.564-27.669-14.093-62.836-17.907-99.749H172.8
		c5.947,0,10.861-4.848,10.861-10.861c0-5.947-4.848-10.861-10.861-10.861h-21.139c-0.517-6.529-1.099-12.994-1.616-19.523h42.796
		c5.947,0,10.861-4.848,10.861-10.861c0-5.947-4.848-10.861-10.861-10.861h-44.412c-0.517-8.145-0.517-16.291-0.517-24.372
		c0-82.941,24.954-112.162,46.093-112.162s46.093,29.285,46.093,112.162C240.679,195.879,231.434,270.675,217.859,320z
		 M368.032,243.588l-110.545-21.657c2.715-23.855,4.331-47.127,4.849-70.465l105.697,76.412V243.588z"/>
</g>
<g>
</g>
<g>
</g>
<g>
</g>
<g>
</g>
<g>
</g>
<g>
</g>
<g>
</g>
<g>
</g>
<g>
</g>
<g>
</g>
<g>
</g>
<g>
</g>
<g>
</g>
<g>
</g>
<g>
</g>
</svg>
